<svg width="80" height="32" viewBox="0 0 80 32" fill="none" xmlns="http://www.w3.org/2000/svg">
<path d="M45.2642 11.1905V14.5452V23.1489V30.4455C45.2642 30.7227 45.0389 30.9502 44.7551 30.9502H42.3849C42.1053 30.9502 41.8758 30.7268 41.8758 30.4455V19.7653C41.8758 19.4882 41.6504 19.2607 41.3667 19.2607H40.8617C39.8686 19.2648 38.8754 19.2648 37.8822 19.2648H36.6554C36.4551 19.2648 36.2464 19.24 36.0503 19.2855C34.8193 19.5668 34.8861 20.7953 34.8861 21.788V23.1531C34.8861 23.4302 34.6607 23.6577 34.3769 23.6577H32.1653C31.8857 23.6577 31.6562 23.4302 31.6478 23.1489V18.4748V14.5452V11.1905C31.6478 10.9093 31.8773 10.6859 32.1569 10.6859H34.306C34.5898 10.6859 34.8151 10.9134 34.8151 11.1905V14.3549C34.8151 15.6455 35.2908 16.4521 36.3049 16.4521C36.4509 16.4521 36.9767 16.4603 37.9615 16.4603C38.9505 16.4603 40.2275 16.4603 40.3735 16.4521C41.1246 16.4231 41.93 15.509 41.93 14.781V11.1905C41.93 10.9134 42.1554 10.6859 42.4391 10.6859H44.7551C45.0347 10.6859 45.2642 10.9093 45.2642 11.1905ZM62.5612 12.9609C61.4846 12.9609 60.6124 13.8254 60.6124 14.8926C60.6124 15.9598 61.4846 16.8243 62.5612 16.8243C63.6378 16.8243 64.51 15.9598 64.51 14.8926C64.51 13.8254 63.6378 12.9609 62.5612 12.9609ZM58.6219 18.8429H55.4338V24.849C55.4338 25.6556 55.5214 26.487 55.1375 27.2274C54.7703 27.9347 54.04 28.2822 52.9926 28.2822C51.9452 28.2822 51.3902 27.9885 50.8477 27.5046C50.3094 27.0206 50.326 25.7218 50.326 25.7218V18.8388H47.1671C47.1671 18.8388 47.2214 26.396 47.2464 26.731C47.2798 27.062 47.334 27.8562 47.9433 29.1012C48.5525 30.3463 50.5264 31.2646 53.0385 31.2646C55.5506 31.2646 57.2073 30.0691 57.9417 28.9109C58.6762 27.7486 58.6219 25.8996 58.6219 25.8996V18.8429ZM73.3024 24.2492C72.5263 23.8521 71.6791 23.6411 70.8571 23.3681C70.2854 23.1779 69.1253 22.9131 69.3131 22.0817C69.4633 21.4075 70.3438 21.453 70.8821 21.4861C71.3161 21.515 71.7584 21.6226 72.1632 21.7715C72.2634 21.8046 73.3191 22.3092 73.2816 22.3589C73.8199 21.6309 74.354 20.8987 74.8923 20.1707C74.8923 20.1707 74.1662 19.4758 72.785 18.9711C71.4037 18.4665 69.7178 18.6113 68.7539 18.905C67.961 19.1449 67.2141 19.7488 66.7717 20.4354C66.0748 21.5192 65.9038 23.4591 66.8135 24.4974C67.5103 25.2916 68.6204 25.7507 69.6135 26.0444C70.2186 26.2223 70.8195 26.4208 71.4037 26.6566C71.8502 26.8345 72.3802 27.0206 72.3385 27.608C72.2675 28.5635 70.8821 28.4932 70.2103 28.3939C69.7095 28.3194 69.2213 28.1622 68.7622 27.9472C68.6454 27.8934 67.5145 27.2688 67.5437 27.2316L65.9038 29.5479C66.9261 30.2139 68.0445 30.8551 69.2505 31.1115C71.0365 31.4921 73.5945 31.2604 74.692 29.6059C75.3806 28.5676 75.5892 26.9255 75.0092 25.8004C74.6503 25.1054 73.991 24.6008 73.3024 24.2492ZM78.7941 28.8613C78.1264 28.8613 77.5881 29.3949 77.5881 30.0567C77.5881 30.7185 78.1264 31.2521 78.7941 31.2521C79.4617 31.2521 80 30.7185 80 30.0567C80 29.3949 79.4617 28.8613 78.7941 28.8613ZM60.9713 30.9295H64.076V18.8388H60.9713V30.9295Z" fill="#2676A5"/>
<path d="M15.4275 9.37043C15.4108 8.84097 15.3565 8.31151 15.2689 7.78619C15.0102 6.25571 14.3968 4.77488 13.4161 3.56291C12.8444 2.85558 12.1475 2.24339 11.363 1.77598C9.68547 0.770831 7.71165 0.212415 5.76705 0.0800495C4.1688 -0.0316336 2.52882 -0.00267875 0.9264 0.0262761C0.613427 0.0304125 0.312973 0.0180033 0 0.0262761V18.9752C2.57472 18.9752 5.25794 19.1985 7.79094 18.6732C10.8664 18.0362 13.6248 16.0342 14.8057 13.0932C15.2814 11.9061 15.465 10.6362 15.4275 9.37043ZM8.30004 15.3227C6.55157 15.9639 3.20902 15.7033 3.20902 15.7033V3.34368C4.95749 3.1534 7.46545 3.38091 9.10125 4.13373C10.7371 4.88656 11.9889 6.13162 12.0641 9.51521C12.1392 12.8988 10.0485 14.6816 8.30004 15.3227ZM26.2814 6.82654V7.81928C26.2814 7.81928 25.0378 6.75208 22.8888 6.68176C20.9066 6.61558 18.8243 7.66209 17.6475 9.22152C16.1995 11.1367 15.9741 14.028 17.176 16.1045C18.3235 18.0859 20.7438 19.2647 23.0181 19.2647C25.0211 19.2647 26.2438 18.1644 26.2438 18.1644V18.9752H29.3569V6.84722L26.2814 6.82654ZM22.8888 16.2865C21.0401 16.2865 19.542 14.8015 19.542 12.9691C19.542 11.1367 21.0401 9.65171 22.8888 9.65171C24.7374 9.65171 26.2355 11.1367 26.2355 12.9691C26.2355 14.8015 24.7374 16.2865 22.8888 16.2865ZM31.6562 3.34782V14.2473C31.6562 14.9877 31.6562 15.6247 31.9149 16.3237C32.1778 17.0352 32.5826 17.7094 33.1584 18.2141C34.4187 19.3144 36.5302 19.2606 36.5302 19.2606H37.7904V16.4561H36.405C35.0071 16.4561 34.8234 15.3103 34.8234 14.21V9.64757H37.5567C37.8697 9.64757 38.1243 9.39525 38.1243 9.08502V7.23191C38.1243 6.92168 37.8697 6.66936 37.5567 6.66936H35.4577C35.1448 6.66936 34.8902 6.41703 34.8902 6.1068V3.34782C34.8902 3.03758 34.6357 2.78526 34.3227 2.78526H32.2237C31.9107 2.78526 31.6562 3.03758 31.6562 3.34782Z" fill="#4A4A4A"/>
</svg>
